<svg width="139" height="16" viewBox="0 0 139 16" fill="none" xmlns="http://www.w3.org/2000/svg">
<rect width="139" height="16" fill="white"/>
<rect x="-1034" y="-63" width="1440" height="197" fill="$footerBgColor"/>
<path fill-rule="evenodd" clip-rule="evenodd" d="M15.9438 4.7011C15.8831 3.41939 15.5904 2.28406 14.6516 1.34866C13.7165 0.413254 12.5814 0.120495 11.2999 0.0562312C9.97925 -0.0187437 6.02075 -0.0187437 4.70006 0.0562312C3.4222 0.116925 2.28712 0.409684 1.34835 1.34509C0.409593 2.28049 0.120468 3.41582 0.0562186 4.69753C-0.0187395 6.01852 -0.0187395 9.97791 0.0562186 11.2989C0.116899 12.5806 0.409593 13.7159 1.34835 14.6513C2.28712 15.5867 3.41863 15.8795 4.70006 15.9438C6.02075 16.0187 9.97925 16.0187 11.2999 15.9438C12.5814 15.8831 13.7165 15.5903 14.6516 14.6513C15.5868 13.7159 15.8795 12.5806 15.9438 11.2989C16.0187 9.97791 16.0187 6.02209 15.9438 4.7011ZM12.2708 4.68682C12.7991 4.68682 13.2274 4.26197 13.2274 3.73C13.2274 3.20161 12.7991 2.77318 12.2708 2.77318C11.7426 2.77318 11.3142 3.20161 11.3142 3.73C11.3142 4.2584 11.739 4.68682 12.2708 4.68682ZM8.00178 3.8978C5.73162 3.8978 3.9005 5.72933 3.9005 8C3.9005 10.2707 5.73162 12.1022 8.00178 12.1022C10.2719 12.1022 12.1031 10.2707 12.1031 8C12.1031 5.72933 10.2719 3.8978 8.00178 3.8978ZM8.00178 10.667C6.53475 10.667 5.33542 9.47094 5.33542 8C5.33542 6.52906 6.53118 5.33304 8.00178 5.33304C9.47239 5.33304 10.6682 6.52906 10.6682 8C10.6682 9.47094 9.46882 10.667 8.00178 10.667ZM12.717 14.2372C13.4202 13.9551 13.9592 13.416 14.2376 12.7163C14.5958 11.816 14.5759 9.84665 14.5629 8.57005C14.5608 8.35829 14.5588 8.1656 14.5588 8C14.5588 7.83437 14.5608 7.64171 14.5629 7.43001C14.5759 6.1541 14.5958 4.18706 14.2376 3.28372C13.9556 2.58039 13.4166 2.04128 12.717 1.7628C11.8141 1.40646 9.83564 1.42545 8.5597 1.43769C8.35271 1.43967 8.16421 1.44148 8.00179 1.44148C7.8362 1.44148 7.64357 1.43953 7.43193 1.43738C6.1563 1.42446 4.1897 1.40453 3.28656 1.7628C2.58338 2.04485 2.04439 2.58396 1.76598 3.28372C1.40972 4.18686 1.4287 6.16574 1.44094 7.44196C1.44292 7.64899 1.44473 7.83754 1.44473 8C1.44473 8.16563 1.44278 8.35829 1.44063 8.56998C1.42771 9.84589 1.40778 11.8129 1.76598 12.7163C2.04796 13.4196 2.58695 13.9587 3.28656 14.2372C4.18949 14.5935 6.16793 14.5746 7.44387 14.5623C7.65086 14.5603 7.83936 14.5585 8.00179 14.5585C8.16737 14.5585 8.35999 14.5605 8.57164 14.5626C9.84726 14.5755 11.8139 14.5955 12.717 14.2372Z" fill="black"/>
<path d="M80.9639 11.7591C80.8011 12.138 80.1127 12.4163 78.8589 12.6105C78.7944 12.6973 78.741 13.0681 78.6556 13.357C78.6048 13.5305 78.4799 13.6334 78.2766 13.6334L78.2673 13.6332C77.9737 13.6332 77.6672 13.4985 77.0532 13.4985C76.2244 13.4985 75.9388 13.6868 75.2953 14.1401C74.613 14.6212 73.9587 15.0365 72.9819 14.9939C71.993 15.0667 71.1687 14.467 70.7047 14.1399C70.0574 13.6836 69.7726 13.4985 68.9472 13.4985C68.3577 13.4985 67.9867 13.6456 67.7331 13.6456C67.4808 13.6456 67.3827 13.4923 67.3449 13.3639C67.2604 13.0776 67.2073 12.7013 67.1411 12.612C66.4948 12.512 65.0376 12.2584 65.0005 11.6101C64.9912 11.4413 65.1107 11.2927 65.2779 11.2651C67.4524 10.9081 68.4318 8.68167 68.4725 8.58715C68.4748 8.58166 68.4773 8.57643 68.4799 8.5711C68.5959 8.33622 68.6219 8.13952 68.5569 7.9867C68.3991 7.61598 67.7171 7.48298 67.4302 7.36979C66.6891 7.07792 66.586 6.74254 66.6298 6.51268C66.706 6.11267 67.3087 5.86652 67.6612 6.03112C67.9399 6.16141 68.1875 6.22735 68.397 6.22735C68.5539 6.22735 68.6536 6.18983 68.7082 6.1597C68.6444 5.03982 68.4863 3.43947 68.886 2.54575C69.9414 0.186137 72.1783 0.00277352 72.8384 0.00277352C72.8679 0.00277352 73.124 0 73.1543 0C74.7839 0 76.3497 0.834548 77.1144 2.54425C77.5136 3.43707 77.3565 5.03082 77.2923 6.15945C77.3418 6.18662 77.4285 6.21997 77.561 6.22611C77.761 6.2172 77.9928 6.15166 78.2507 6.03112C78.4409 5.94243 78.7009 5.95443 78.8907 6.03293L78.8916 6.03324C79.1877 6.13873 79.3741 6.35157 79.3788 6.59012C79.3845 6.89387 79.1124 7.1562 78.5701 7.36976C78.5039 7.39578 78.4234 7.42134 78.3378 7.44845C78.0316 7.54524 77.569 7.69168 77.4435 7.98667C77.3785 8.13949 77.4043 8.33604 77.5204 8.57091C77.5231 8.57615 77.5256 8.58157 77.5279 8.58696C77.5685 8.68139 78.5471 10.9074 80.7225 11.2649C80.9234 11.2979 81.0714 11.5104 80.9639 11.7591Z" fill="black"/>
<path d="M103.539 2.65625H105V0.1125C104.748 0.078125 103.882 0 102.873 0C100.767 0 99.3242 1.325 99.3242 3.75938V6H97V8.84375H99.3242V16H102.173V8.84375H104.403L104.758 6H102.173V4.04063C102.173 3.21875 102.394 2.65625 103.539 2.65625Z" fill="black"/>
<path fill-rule="evenodd" clip-rule="evenodd" d="M137.032 2.38885C137.807 2.60284 138.417 3.23341 138.624 4.03406C139 5.48529 139 8.51314 139 8.51314C139 8.51314 139 11.541 138.624 12.9922C138.417 13.7929 137.807 14.3972 137.032 14.6112C135.629 15 130 15 130 15C130 15 124.371 15 122.968 14.6112C122.193 14.3972 121.583 13.7929 121.376 12.9922C121 11.541 121 8.51314 121 8.51314C121 8.51314 121 5.48529 121.376 4.03406C121.583 3.23341 122.193 2.60287 122.968 2.38885C124.371 2 130 2 130 2C130 2 135.629 2 137.032 2.38885ZM132.864 8.5132L128.159 5.76408V11.2622L132.864 8.5132Z" fill="black"/>
<path d="M47.2526 4.48905C47.2634 4.64217 47.2634 4.79532 47.2634 4.94844C47.2634 9.61873 43.7577 15 37.3503 15C35.3763 15 33.5425 14.4203 32 13.4141C32.2805 13.4469 32.5501 13.4578 32.8414 13.4578C34.4702 13.4578 35.9695 12.9 37.1669 11.9485C35.6352 11.9156 34.3515 10.8984 33.9093 9.49844C34.125 9.53123 34.3407 9.55311 34.5673 9.55311C34.8801 9.55311 35.1929 9.50934 35.4842 9.43282C33.8877 9.10467 32.6903 7.68281 32.6903 5.96562V5.92189C33.1541 6.18439 33.6935 6.34845 34.2652 6.3703C33.3267 5.73591 32.7119 4.65311 32.7119 3.4281C32.7119 2.77186 32.8845 2.1703 33.1865 1.6453C34.9016 3.78904 37.4797 5.18902 40.3705 5.34217C40.3166 5.07967 40.2842 4.80626 40.2842 4.53282C40.2842 2.58592 41.8376 1 43.7684 1C44.7716 1 45.6776 1.42656 46.3141 2.11562C47.1015 1.96251 47.8566 1.66718 48.5254 1.2625C48.2665 2.08283 47.7164 2.7719 46.9937 3.20937C47.6948 3.13284 48.3744 2.93592 49 2.66251C48.5255 3.36248 47.9321 3.9859 47.2526 4.48905Z" fill="black"/>
</svg>
